# xmcd CD database file
# 
# Track frame offsets:
# 	300
# 	23349
# 	36357
# 	59288
# 	66733
# 	78639
# 	122426
# 	134169
# 	192126
# 	207249
# 	222825
# 	241562
# 	256889
# 	283482
# 
# Disc length: 4308 seconds
# 
# Submitted via: Nero 6, 6, 1, 15
# 
# Revision: 0
# Processed by: cddbd v1.5.2PL0 Copyright (c) Steve Scherf et al.
#
DISCID=d510d00e
DTITLE=The City of Prague Philharmonic Orchestra - The Magnificent Westerns [CD
DTITLE=1 of 4)[The City of Prague Philharmonic Orchestra]
DYEAR=1900
DGENRE=
TTITLE0=The Alamo: Overture
TTITLE1=The Big Country: Main Theme
TTITLE2=Blazing Saddles
TTITLE3=Bonanza
TTITLE4=The Comancheros: Main Title
TTITLE5=The Cowboys: Overture
TTITLE6=Dances with Wolves: The John Dunbar Theme
TTITLE7=Duel In The Sun: Entr'acte
TTITLE8=El Condor: Main Title
TTITLE9=A Fistful Of Dollars
TTITLE10=A Fistful Of Dynamite
TTITLE11=For A Few Dollars More
TTITLE12=The Good, The Bad And The Ugly
TTITLE13=Gunfight At The O.K. Corral: Suite
EXTD=
EXTT0=
EXTT1=
EXTT2=
EXTT3=
EXTT4=
EXTT5=
EXTT6=
EXTT7=
EXTT8=
EXTT9=
EXTT10=
EXTT11=
EXTT12=
EXTT13=
PLAYORDER=
